<svg width="32" height="33" viewBox="0 0 32 33" fill="none" xmlns="http://www.w3.org/2000/svg">
<path fill-rule="evenodd" clip-rule="evenodd" d="M16.679 32.486V32.5C17.875 32.5 19.027 32.313 20.108 31.968C26.954 30.154 32 23.916 32 16.5C32 7.663 24.837 0.5 16 0.5C7.163 0.5 0 7.663 0 16.5C0 25.337 7.163 32.5 16 32.5C16.227 32.5 16.454 32.495 16.679 32.486ZM9.734 3.909C8.64363 4.45318 7.62849 5.13655 6.714 5.942V27.058C7.624 27.859 8.638 28.544 9.734 29.091V3.909ZM11.674 3.118V29.882C12.7315 30.2236 13.8258 30.4381 14.934 30.521V2.479C13.804 2.564 12.712 2.782 11.674 3.118ZM1.938 16.5C1.938 13.32 2.994 10.387 4.774 8.032V24.968C2.92991 22.5305 1.93423 19.5565 1.939 16.5H1.938ZM16.872 30.534C17.112 30.519 17.35 30.499 17.586 30.472C18.701 30.2476 19.6952 29.6229 20.3812 28.7158C21.0672 27.8086 21.3974 26.6818 21.3095 25.5479C21.2217 24.414 20.7219 23.3514 19.9044 22.5607C19.0868 21.7701 18.0082 21.306 16.872 21.256V30.534ZM16.872 19.314C17.9202 19.3446 18.9459 19.6248 19.8641 20.1312C20.7823 20.6377 21.5665 21.3558 22.1515 22.226C22.7366 23.0961 23.1057 24.0933 23.2283 25.1347C23.3508 26.1762 23.2232 27.2318 22.856 28.214C24.2557 26.9713 25.2483 25.3356 25.7043 23.5203C26.1604 21.705 26.0587 19.7944 25.4125 18.0378C24.7663 16.2811 23.6057 14.7601 22.082 13.673C20.5583 12.586 18.7423 11.9834 16.871 11.944V19.314H16.872ZM16.872 10.004C22.995 10.108 27.926 15.104 27.926 21.252C27.926 22.486 27.727 23.675 27.36 24.786C29.1188 22.3817 30.0647 19.4789 30.06 16.5C30.06 9.028 24.23 2.917 16.872 2.466V10.005V10.004Z" fill="#EBB35E"/>
</svg>
